<?xml version="1.0" encoding="UTF-8"?><svg xmlns="http://www.w3.org/2000/svg" viewBox="0 0 1960.51 636.35"><defs><style>.cls-1{isolation:isolate;}.cls-2{fill:#4a4b4c;}.cls-3{fill:#fbd642;opacity:.8;}.cls-3,.cls-4{mix-blend-mode:screen;}.cls-5{fill:#94110a;}.cls-6{fill:#a21610;}.cls-7{fill:#f22100;}.cls-8,.cls-4,.cls-9{fill:#6e777d;}.cls-8,.cls-10{mix-blend-mode:multiply;}.cls-10{fill:#faa819;}</style></defs><g class="cls-1"><g id="Livello_2"><g id="Layer_1"><g><g><g><rect class="cls-7" width="1960.51" height="636.35"/><path class="cls-3" d="M83.15,168.26c42.92,16.04,68.77,22.33,106.14,46.05,42.47,26.96,91.79,33.07,140.94,24.58,90.7-15.64,171.8-64.26,262.99-77.02,47.14-6.61,95.88-8.75,142.9,.29,49.25,9.46,95.9,27.36,144.44,39.49,59.53,14.88,107.6,11.9,165.04-8.27,40.34-14.12,81-27.32,124.31-26.3,92.26,2.21,169.3,48.59,254.78,76.74,110.3,36.3,200.88-8.06,304.01-41.98,75.38-24.78,153.33-38.8,231.82-43.32V0H0V158.83c29.53-1.74,54.19-1.42,83.15,9.43Z"/><path class="cls-10" d="M0,0V88.14c25.99,0,52.12-.78,78.07-.29,58.18,1.15,98.42,44.38,147.57,66.24,59.78,26.69,112.8,30.57,176.51,14.32,52.47-13.44,89.51-49.25,136.1-72.31,43.42-21.49,96.78-14.01,143.6-8.2,64.73,8.13,128.32,25.55,194.06,26.29,64.39,.71,123.65-26.06,187.36-26.17,30.41-.06,63.01-2.86,93.12-.24,67.66,5.94,127.12,37.28,189.27,59.36,70.53,25.12,136.02,26.35,210.26,15.16,77.13-11.65,141.76-62.38,220.36-74.16h184.23V0H0ZM393,106.36c-25.01,49.44-95.09,58.26-144.6,33.01-30.29-15.4-90.54-51.1-79.15-88.87,9.4-31.1,88.84-35.2,114.83-27.53,1.86,.54,3.03,1.55,3.83,2.77,1.33-2.54,4.12-4.48,7.97-3.87,48.04,7.76,129.45,20.57,97.11,84.48Zm92.03-17.84c-9.83,1.2-24.43,1.34-31.54-6.35-6.23-6.76-6.02-15.46-1.13-22.92,7.68-11.72,21.99-21.25,37.01-22.77,18.84-5.44,45.57-5.64,47.96,15.2,2.64,22.63-32.79,34.4-52.3,36.84Zm437.6,5.46c-28.02,3.57-57.24,6.24-85.26,1.5-17.98-3.02-60.25-12.06-62.75-33.92-4.61-40.3,70.65-43.57,122.61-42.37,39.16-8.98,99.88-16.38,113.5,21.13,14.68,40.31-59.98,50.08-88.1,53.66Zm464.43,21.95c-28.45-4.51-98.22-17.82-97.71-54.47,.49-36.74,46.49-41.57,79.34-33.75,39.44-4.05,85.56-2.15,97.25,35.32,14.27,45.56-39.18,59.35-78.87,52.89Zm196.31,6.26c-22.08,7.04-65.72,17.86-83.02-3.3-22.24-27.29,12.47-48.23,39.18-54.09,26.3-15.62,59.62-22.23,85.01-1.9,29.26,23.37-20.79,52.81-41.18,59.29Z"/></g><g><g><path class="cls-3" d="M1448.45,505.89c0,13.41-31.56,24.3-70.53,24.3s-70.47-10.9-70.47-24.3,31.56-24.24,70.47-24.24,70.53,10.86,70.53,24.24Z"/><path class="cls-7" d="M1422.75,506.14c0,8.52-20.05,15.41-44.83,15.41s-44.81-6.89-44.81-15.41,20.07-15.43,44.81-15.43,44.83,6.93,44.83,15.43Z"/></g><g><path class="cls-3" d="M1512.71,557.28c0,6.03-14.21,10.93-31.76,10.93s-31.78-4.91-31.78-10.93,14.23-10.93,31.78-10.93,31.76,4.9,31.76,10.93Z"/><path class="cls-6" d="M1501.14,557.39c0,3.85-9.03,6.94-20.19,6.94s-20.21-3.09-20.21-6.94,9.07-6.95,20.21-6.95,20.19,3.13,20.19,6.95Z"/></g></g><g><g><path class="cls-3" d="M887.38,253.82c0,13.42-31.56,24.26-70.51,24.26s-70.47-10.85-70.47-24.26,31.56-24.27,70.47-24.27,70.51,10.86,70.51,24.27Z"/><path class="cls-7" d="M861.7,254.06c0,8.51-20.07,15.41-44.83,15.41s-44.79-6.9-44.79-15.41,20.03-15.43,44.79-15.43,44.83,6.92,44.83,15.43Z"/></g><g><path class="cls-3" d="M951.65,305.19c0,6.04-14.23,10.93-31.74,10.93s-31.78-4.9-31.78-10.93,14.21-10.92,31.78-10.92,31.74,4.91,31.74,10.92Z"/><path class="cls-6" d="M940.08,305.32c0,3.85-9.03,6.94-20.17,6.94s-20.21-3.09-20.21-6.94,9.03-6.95,20.21-6.95,20.17,3.12,20.17,6.95Z"/></g></g><g><g><path class="cls-3" d="M269.42,408c0,13.42-31.58,24.26-70.49,24.26s-70.51-10.85-70.51-24.26,31.58-24.27,70.51-24.27,70.49,10.88,70.49,24.27Z"/><path class="cls-7" d="M243.72,408.23c0,8.53-20.07,15.44-44.79,15.44s-44.83-6.91-44.83-15.44,20.05-15.41,44.83-15.41,44.79,6.91,44.79,15.41Z"/></g><g><path class="cls-3" d="M333.69,459.4c0,6.03-14.21,10.92-31.78,10.92s-31.76-4.9-31.76-10.92,14.23-10.93,31.76-10.93,31.78,4.9,31.78,10.93Z"/><path class="cls-6" d="M322.12,459.5c0,3.85-9.03,6.95-20.21,6.95s-20.17-3.1-20.17-6.95,9.03-6.97,20.17-6.97,20.21,3.13,20.21,6.97Z"/></g></g><g><g><path class="cls-3" d="M1744.34,46.69c0,13.42-31.56,24.28-70.49,24.28s-70.49-10.87-70.49-24.28,31.56-24.24,70.49-24.24,70.49,10.85,70.49,24.24Z"/><path class="cls-7" d="M1718.69,46.93c0,8.54-20.07,15.42-44.83,15.42s-44.81-6.88-44.81-15.42,20.05-15.4,44.81-15.4,44.83,6.9,44.83,15.4Z"/></g><g><path class="cls-3" d="M1808.6,98.08c0,6.03-14.21,10.93-31.72,10.93s-31.8-4.9-31.8-10.93,14.23-10.93,31.8-10.93,31.72,4.88,31.72,10.93Z"/><path class="cls-6" d="M1797.05,98.19c0,3.85-9.03,6.93-20.17,6.93s-20.21-3.08-20.21-6.93,9.03-6.95,20.21-6.95,20.17,3.12,20.17,6.95Z"/></g></g><g><g><path class="cls-3" d="M309.36,51.31c0,10.88-25.6,19.66-57.14,19.66s-57.12-8.78-57.12-19.66,25.6-19.66,57.12-19.66,57.14,8.79,57.14,19.66Z"/><path class="cls-7" d="M288.53,51.5c0,6.91-16.24,12.48-36.31,12.48s-36.31-5.57-36.31-12.48,16.24-12.51,36.31-12.51,36.31,5.6,36.31,12.51Z"/></g><g><path class="cls-3" d="M361.44,92.95c0,4.89-11.53,8.84-25.74,8.84s-25.74-3.96-25.74-8.84,11.49-8.86,25.74-8.86,25.74,3.96,25.74,8.86Z"/><path class="cls-6" d="M352.06,93.02c0,3.14-7.31,5.64-16.36,5.64s-16.36-2.5-16.36-5.64,7.33-5.62,16.36-5.62,16.36,2.51,16.36,5.62Z"/></g></g></g><g><g><path class="cls-5" d="M1088.51,362.44c-25.05-1.21-163.91-5.23-125.5-58.6,3.44-4.84-.86-8.53-4.63-3.79-19.27,24.25-15.15,40.19,10.57,56.11,32.91,20.36,80.38,17.46,117.14,13.2,2.79-.33,6.82-6.7,2.42-6.92Z"/><path class="cls-5" d="M1205.3,291.47c-19.25-9.44-41.2-15.51-62.73-13.11-3.67,.45-8.46,9.1-3.11,8.79,22.92-1.34,49.75,8.12,68.07,21.89,30.55,22.98-36.7,43.08-50.73,47.26-2.23,.64-5.55,7.15-1.66,6.58,24.08-3.55,71.14-12.99,72.03-45.04,.37-12.99-11.59-21.29-21.87-26.37Z"/><path class="cls-5" d="M1121.17,376.69c-12.33,2.95-26.38,2.63-39.03,3.8-12.25,1.12-24.51,2.2-36.8,2.77-3.69,.21-8.44,8.56-3.09,8.71,13.89,.46,27.59-.1,41.45-.94,12.31-.73,26.54,.84,37.35-5.75,3.01-1.91,6.43-10.12,.12-8.59Z"/><path class="cls-5" d="M1003.85,377.31c-1.72-.57-3.22-.08-5,.04-2.33,.18-5.08-.93-7.31-1.58-5.71-1.62-11.45-3.37-17.24-4.63-3.22-.71-8.09,6.07-4.22,7.43,9.2,3.15,25.64,14.91,33.73,4.46,1.08-1.43,2.64-4.87,.04-5.71Z"/></g><g><path class="cls-9" d="M1191.05,305.01c-2.68-9.14-7.62-17.86-13.56-23.77-11.2-11.15-23.98-21.11-38.6-27.44-22.71-9.84-48.08-10.88-72.17-5.52-21.26,4.76-43.89,13.35-62.69,26.31-23.02,21.5-36.66,46.23-10.55,65.71,19.95,14.9,57.47,11.92,80.67,11.74,29.63-.22,67.7-2.19,94.98-15.46,14.36-7.02,20.33-18.11,21.93-31.57Z"/><path class="cls-2" d="M1050.3,355.68c-19.43,0-43.64-1.44-58.78-12.74-9.77-7.28-14.97-15.81-15.5-25.38-.74-13.45,7.93-28.71,25.78-45.37,22.59-15.63,47.35-23.34,64.22-27.12,26.15-5.81,52.14-3.84,74.18,5.73,13.52,5.83,26.46,15.03,39.59,28.1,6.31,6.28,11.57,15.46,14.4,25.19,.14,.41,.16,.86,.12,1.3-1.92,16.1-9.69,27.27-23.75,34.15-27.93,13.56-66.19,15.57-96.4,15.79-2.89,.02-5.98,.08-9.24,.15-4.61,.09-9.54,.2-14.62,.2Zm44.97-107.31c-9.15,0-18.51,1.05-27.85,3.12-16.28,3.64-40.16,11.06-61.52,25.81-15.99,14.96-23.96,28.48-23.33,39.92,.43,7.63,4.63,14.31,12.86,20.48,13.6,10.14,36.47,11.43,54.88,11.43,5.02,0,9.91-.1,14.48-.2,3.3-.07,6.43-.14,9.32-.16,29.55-.22,66.88-2.13,93.59-15.12,11.86-5.81,18.23-14.82,20.01-28.37-2.58-8.45-7.13-16.35-12.55-21.73-12.53-12.49-24.82-21.22-37.56-26.73-12.96-5.61-27.2-8.45-42.33-8.45Z"/></g><path class="cls-8" d="M1177.49,281.24c-9.99-9.98-21.38-18.87-34.12-25.17,5.26,10.36,7.54,21.23,4.38,31.45-8.99,29.08-40.24,33.61-66.91,35.12-23.16,1.28-70.43,6.23-85.19-18.15-3.42-5.68-4.65-11.11-4.34-16.28-14.21,17.84-18.55,36.58,2.17,52.09,19.95,14.9,57.47,11.92,80.67,11.74,29.63-.22,67.7-2.19,94.98-15.46,14.36-7.02,20.33-18.11,21.93-31.57-2.68-9.14-7.62-17.86-13.56-23.77Z"/><path class="cls-4" d="M1040.51,285.27c25.21-12.1,52.43-20.71,79.56-27.33,6.43-1.58,12.88-2.79,19.27-3.89-.14-.11-.25-.19-.45-.25-22.71-9.84-48.08-10.88-72.17-5.52-21.26,4.76-43.89,13.35-62.69,26.31-20.7,19.31-33.71,41.26-17.16,59.65,7-22.02,33.16-39.16,53.64-48.97Z"/></g><g><g><path class="cls-5" d="M354.64,139.89c-18.82-.93-123.04-3.91-94.24-44,2.58-3.61-.64-6.38-3.48-2.82-14.46,18.2-11.37,30.15,7.95,42.1,24.68,15.29,60.33,13.12,87.92,9.91,2.09-.23,5.1-5.01,1.84-5.18Z"/><path class="cls-5" d="M442.27,86.61c-14.46-7.08-30.92-11.65-47.08-9.83-2.76,.32-6.35,6.82-2.33,6.6,17.22-1.01,37.35,6.1,51.08,16.42,22.9,17.26-27.55,32.33-38.07,35.47-1.7,.48-4.18,5.38-1.25,4.94,18.08-2.65,53.39-9.73,54.05-33.81,.29-9.71-8.68-15.97-16.42-19.79Z"/><path class="cls-5" d="M379.13,150.58c-9.22,2.22-19.82,1.98-29.29,2.85-9.19,.86-18.39,1.65-27.61,2.08-2.78,.15-6.31,6.43-2.31,6.55,10.4,.31,20.71-.1,31.09-.72,9.24-.54,19.93,.63,28.02-4.32,2.27-1.41,4.83-7.58,.1-6.44Z"/><path class="cls-5" d="M291.05,151.05c-1.25-.42-2.38-.06-3.73,.03-1.74,.14-3.83-.69-5.47-1.17-4.28-1.22-8.62-2.55-12.96-3.49-2.42-.54-6.06,4.55-3.15,5.56,6.9,2.38,19.23,11.19,25.29,3.35,.8-1.06,1.97-3.64,.02-4.28Z"/></g><g><path class="cls-9" d="M431.6,96.77c-2.03-6.85-5.75-13.39-10.2-17.84-8.38-8.36-17.98-15.84-28.94-20.57-17.06-7.4-36.09-8.17-54.19-4.16-15.97,3.56-32.93,10.02-47.04,19.75-17.3,16.13-27.54,34.69-7.95,49.34,14.99,11.17,43.15,8.94,60.56,8.79,22.24-.16,50.83-1.61,71.27-11.57,10.81-5.3,15.28-13.61,16.49-23.73Z"/><path class="cls-2" d="M325.89,135.63c-14.68,0-33.01-1.11-44.58-9.71-7.52-5.64-11.53-12.24-11.94-19.68-.57-10.35,6.04-22.02,19.6-34.69,17.22-11.92,35.88-17.73,48.56-20.56,19.84-4.38,39.52-2.88,56.22,4.36,10.26,4.43,20.05,11.38,29.96,21.26,4.79,4.79,8.81,11.81,11.02,19.24,.12,.42,.16,.87,.1,1.31-1.47,12.38-7.47,20.98-18.29,26.29-21.05,10.25-49.89,11.75-72.7,11.9-2.13,.02-4.46,.07-6.88,.13-3.5,.07-7.23,.16-11.08,.16Zm33.77-80.54c-6.78,0-13.76,.78-20.7,2.31-12.12,2.71-29.92,8.26-45.89,19.25-11.73,10.99-17.61,20.92-17.16,29.24,.29,5.47,3.34,10.31,9.32,14.78,10.01,7.45,26.97,8.4,40.65,8.4,3.79,0,7.49-.08,10.94-.16,2.46-.04,4.79-.1,6.98-.12,22.08-.15,49.99-1.57,69.87-11.24,8.6-4.22,13.25-10.74,14.56-20.51-1.92-6.16-5.24-11.88-9.17-15.78-9.3-9.29-18.43-15.8-27.93-19.9-9.63-4.16-20.23-6.27-31.48-6.27Z"/></g><path class="cls-8" d="M421.4,78.92c-7.5-7.48-16.04-14.13-25.6-18.88,3.95,7.78,5.65,15.95,3.3,23.61-6.78,21.82-30.23,25.24-50.22,26.36-17.43,.97-52.88,4.68-63.96-13.64-2.58-4.24-3.5-8.33-3.24-12.2-10.69,13.4-13.93,27.48,1.6,39.1,14.99,11.17,43.15,8.94,60.56,8.79,22.24-.16,50.83-1.61,71.27-11.57,10.81-5.3,15.28-13.61,16.49-23.73-2.03-6.85-5.75-13.39-10.2-17.84Z"/><path class="cls-4" d="M318.57,81.96c18.96-9.07,39.4-15.54,59.74-20.5,4.85-1.2,9.65-2.13,14.46-2.93-.1-.07-.2-.14-.31-.18-17.06-7.4-36.09-8.17-54.19-4.16-15.97,3.56-32.93,10.02-47.04,19.75-15.56,14.5-25.33,30.97-12.88,44.79,5.24-16.52,24.88-29.42,40.22-36.77Z"/></g><g><g><path class="cls-5" d="M345.89,479.16c-15.22-.73-99.51-3.18-76.2-35.58,2.09-2.93-.53-5.18-2.83-2.3-11.69,14.72-9.19,24.4,6.45,34.06,19.95,12.35,48.78,10.6,71.1,8,1.7-.19,4.12-4.06,1.48-4.19Z"/><path class="cls-5" d="M416.79,436.07c-11.71-5.72-25.03-9.42-38.09-7.93-2.25,.24-5.12,5.51-1.9,5.33,13.91-.82,30.19,4.93,41.33,13.28,18.55,13.95-22.3,26.18-30.8,28.69-1.35,.41-3.38,4.36-1,4.01,14.6-2.14,43.15-7.88,43.72-27.35,.21-7.86-7.04-12.93-13.27-16.02Z"/><path class="cls-5" d="M365.72,487.81c-7.5,1.83-16.04,1.6-23.74,2.32-7.41,.68-14.87,1.34-22.32,1.7-2.27,.11-5.12,5.18-1.86,5.28,8.42,.26,16.75-.07,25.15-.59,7.46-.45,16.1,.52,22.69-3.5,1.82-1.14,3.87-6.12,.08-5.21Z"/><path class="cls-5" d="M294.47,488.19c-1.04-.34-1.95-.03-3.05,.03-1.39,.1-3.07-.57-4.42-.95-3.48-1-6.96-2.05-10.47-2.83-1.95-.41-4.91,3.69-2.54,4.51,5.57,1.92,15.56,9.06,20.46,2.72,.67-.88,1.58-2.97,.02-3.48Z"/></g><g><path class="cls-9" d="M408.13,444.27c-1.62-5.52-4.63-10.83-8.25-14.39-6.78-6.77-14.54-12.85-23.41-16.68-13.8-5.95-29.2-6.59-43.82-3.34-12.92,2.88-26.66,8.1-38.07,15.97-13.97,13.05-22.28,28.06-6.43,39.91,12.16,9.04,34.88,7.23,48.99,7.11,18-.13,41.1-1.32,57.67-9.36,8.74-4.28,12.33-11.01,13.31-19.21Z"/><path class="cls-2" d="M322.63,476.34h0c-11.96,0-26.91-.91-36.43-7.99-6.23-4.65-9.58-10.15-9.91-16.36-.47-8.57,4.92-18.16,16.06-28.56,14.03-9.73,29.22-14.47,39.57-16.77,16.14-3.59,32.19-2.37,45.83,3.52,8.38,3.62,16.38,9.31,24.45,17.38,3.97,3.91,7.27,9.68,9.07,15.81,.12,.41,.16,.87,.1,1.29-1.19,10.25-6.14,17.35-15.11,21.76-17.2,8.35-40.61,9.57-59.1,9.69-1.72,.02-3.6,.06-5.57,.11-2.83,.06-5.84,.12-8.97,.12Zm27.34-65.15c-5.45,0-11.04,.63-16.61,1.86-9.79,2.2-24.12,6.63-36.9,15.49-9.26,8.69-13.97,16.56-13.62,23.08,.24,4.24,2.62,7.98,7.27,11.47,7.97,5.94,21.58,6.7,32.52,6.7h0c3.07,0,6.04-.07,8.83-.13,1.99-.05,3.89-.09,5.67-.11,17.78-.12,40.26-1.26,56.26-9.04,6.68-3.28,10.34-8.35,11.37-15.96-1.49-4.78-4.16-9.36-7.19-12.34-7.48-7.5-14.81-12.73-22.42-16.02-7.7-3.31-16.18-5-25.19-5Z"/></g><path class="cls-8" d="M399.88,429.88c-6.06-6.07-12.96-11.48-20.7-15.29,3.19,6.27,4.59,12.89,2.64,19.09-5.43,17.65-24.41,20.4-40.61,21.31-14.09,.79-42.76,3.8-51.71-11.01-2.09-3.44-2.81-6.75-2.66-9.86-8.62,10.83-11.26,22.23,1.31,31.61,12.16,9.04,34.88,7.23,48.99,7.11,18-.13,41.1-1.32,57.67-9.36,8.74-4.28,12.33-11.01,13.31-19.21-1.62-5.52-4.63-10.83-8.25-14.39Z"/><path class="cls-4" d="M316.73,432.31c15.3-7.33,31.83-12.56,48.31-16.59,3.89-.96,7.8-1.7,11.71-2.37-.1-.05-.2-.12-.27-.15-13.8-5.95-29.2-6.59-43.82-3.34-12.92,2.88-26.66,8.1-38.07,15.97-12.55,11.74-20.48,25.06-10.42,36.23,4.24-13.36,20.13-23.79,32.56-29.74Z"/></g><g><g><path class="cls-5" d="M1475.89,124.33c-15.2-.77-99.51-3.18-76.2-35.61,2.09-2.89-.53-5.18-2.83-2.27-11.69,14.71-9.18,24.38,6.43,34.04,19.99,12.36,48.82,10.61,71.12,8.02,1.7-.21,4.14-4.08,1.49-4.19Z"/><path class="cls-5" d="M1546.79,81.23c-11.71-5.73-25.01-9.41-38.11-7.92-2.23,.23-5.1,5.48-1.88,5.31,13.91-.82,30.21,4.92,41.33,13.27,18.55,13.98-22.28,26.19-30.8,28.72-1.35,.4-3.36,4.34-1,3.99,14.6-2.13,43.17-7.86,43.72-27.32,.24-7.9-7.05-12.94-13.27-16.03Z"/><path class="cls-5" d="M1495.7,132.95c-7.49,1.83-16.01,1.62-23.69,2.32-7.45,.71-14.89,1.36-22.34,1.71-2.25,.12-5.14,5.16-1.86,5.29,8.4,.25,16.75-.08,25.13-.61,7.49-.42,16.12,.53,22.67-3.48,1.84-1.11,3.89-6.14,.08-5.23Z"/><path class="cls-5" d="M1424.47,133.35c-1.04-.35-1.95-.04-3.03,.04-1.41,.09-3.09-.57-4.44-.96-3.46-.99-6.96-2.05-10.45-2.83-1.97-.41-4.91,3.69-2.56,4.5,5.57,1.93,15.56,9.05,20.46,2.72,.66-.87,1.6-2.95,.02-3.47Z"/></g><g><path class="cls-9" d="M1538.13,89.44c-1.64-5.54-4.61-10.84-8.23-14.4-6.78-6.78-14.56-12.83-23.43-16.66-13.8-5.96-29.2-6.59-43.81-3.35-12.94,2.87-26.64,8.1-38.05,15.97-13.99,13.03-22.28,28.06-6.43,39.9,12.14,9.04,34.9,7.24,48.97,7.11,18.02-.13,41.12-1.32,57.65-9.37,8.76-4.27,12.37-11,13.33-19.19Z"/><path class="cls-2" d="M1452.61,121.52c-11.94,0-26.89-.92-36.41-7.99-6.23-4.66-9.56-10.19-9.91-16.38-.45-8.59,4.94-18.19,16.08-28.56,14.09-9.76,29.25-14.47,39.55-16.77,16.18-3.57,32.21-2.35,45.85,3.54,8.38,3.63,16.4,9.3,24.45,17.36,3.93,3.88,7.25,9.65,9.05,15.81,.12,.42,.18,.88,.12,1.32-1.21,10.23-6.17,17.34-15.15,21.73-17.16,8.35-40.59,9.57-59.08,9.69-1.7,.02-3.54,.07-5.45,.11-2.87,.06-5.94,.14-9.11,.14Zm27.38-65.16c-5.45,0-11.04,.63-16.63,1.87-9.73,2.15-24.04,6.6-36.9,15.47-9.11,8.54-13.95,16.64-13.6,23.09,.21,4.22,2.6,7.98,7.27,11.48,7.97,5.91,21.54,6.68,32.48,6.68,3.13,0,6.14-.07,8.95-.13,1.95-.06,3.83-.08,5.55-.1,17.8-.13,40.3-1.28,56.26-9.03,6.8-3.32,10.34-8.28,11.41-15.97-1.54-4.87-4.14-9.34-7.19-12.36-7.47-7.48-14.79-12.7-22.41-16-7.72-3.33-16.2-5.01-25.19-5.01Z"/></g><path class="cls-8" d="M1529.9,75.03c-6.06-6.06-12.98-11.47-20.71-15.29,3.17,6.28,4.59,12.9,2.66,19.09-5.47,17.65-24.45,20.41-40.63,21.31-14.07,.8-42.76,3.79-51.71-11-2.09-3.44-2.81-6.74-2.62-9.88-8.64,10.83-11.29,22.22,1.29,31.62,12.14,9.04,34.9,7.24,48.97,7.11,18.02-.13,41.12-1.32,57.65-9.37,8.76-4.27,12.37-11,13.33-19.19-1.64-5.54-4.61-10.84-8.23-14.4Z"/><path class="cls-4" d="M1446.73,77.48c15.3-7.35,31.83-12.58,48.31-16.59,3.91-.97,7.82-1.7,11.69-2.37-.06-.05-.16-.1-.25-.14-13.8-5.96-29.2-6.59-43.81-3.35-12.94,2.87-26.64,8.1-38.05,15.97-12.59,11.72-20.52,25.06-10.44,36.24,4.26-13.39,20.15-23.81,32.56-29.75Z"/></g></g></g></g></g></svg>