<?xml version="1.0" encoding="UTF-8"?><svg id="Livello_2" xmlns="http://www.w3.org/2000/svg" viewBox="0 0 40.91 61.33"><defs><style>.cls-1{fill:#6e1c38;}.cls-2{fill:#5e1d34;}.cls-3{fill:#578d38;}.cls-4{fill:#431435;}.cls-5{fill:#50a822;}.cls-6{fill:#8c2b4e;}.cls-7{fill:#57112c;}</style></defs><g id="fruits"><g><g><path class="cls-5" d="M17.35,17.78s2.58-5.09,2.39-8.72c-.22-4.16-3.7-5.7-3.73-5.71-.72-.25-1-1.19-.61-2.1,.39-.91,1.29-1.45,2.02-1.2,.18,.06,4.45,1.59,4.77,7.55,.27,4.99-3.48,10.78-3.64,11.03-.51,.79-1.74-.02-1.2-.85Z"/><g><path class="cls-5" d="M27.35,15.06c-6.07-2.74-8.42-10.66-8.42-10.66,0,0,7.49-3.46,13.56-.72s8.42,10.66,8.42,10.66c0,0-7.49,3.46-13.56,.72Z"/><path class="cls-3" d="M40.91,14.34L18.93,4.4s2.35,7.91,8.42,10.66c6.07,2.74,13.56-.72,13.56-.72Z"/></g></g><ellipse class="cls-2" cx="17.06" cy="39.09" rx="17.06" ry="22.24"/><ellipse class="cls-7" cx="20.92" cy="39.09" rx="14.98" ry="22.24"/><path class="cls-1" d="M20.92,16.85c-8.27,0-14.98,9.96-14.98,22.24,0,5.9,1.55,11.26,4.08,15.25,1.68,.96,3.5,1.5,5.4,1.5,8.27,0,14.98-9.96,14.98-22.24,0-5.9-1.55-11.26-4.08-15.25-1.68-.96-3.5-1.5-5.4-1.5Z"/><path class="cls-4" d="M8.6,39.09c0-11.62,6-21.15,13.65-22.15-.44-.06-.88-.09-1.33-.09-8.27,0-14.98,9.96-14.98,22.24s6.71,22.24,14.98,22.24c.45,0,.89-.03,1.33-.09-7.65-1-13.65-10.53-13.65-22.15Z"/><path class="cls-6" d="M18.79,33.54c-.7,2.85-2.92,4.75-4.95,4.25s-3.12-3.21-2.42-6.06c.7-2.85,2.92-4.75,4.95-4.25,2.03,.5,3.12,3.21,2.42,6.06Z"/></g></g></svg>