<?xml version="1.0" encoding="UTF-8"?><svg id="Livello_2" xmlns="http://www.w3.org/2000/svg" viewBox="0 0 58.63 64.56"><defs><style>.cls-1{fill:#578d38;}.cls-2{fill:#ff7000;}.cls-3{fill:#50a822;}.cls-4{fill:#ff892b;}.cls-5{fill:#ffa861;}</style></defs><g id="fruits"><g><rect class="cls-1" x="24.81" y="8.27" width="7.34" height="1.72" transform="translate(8.97 31.79) rotate(-67.05)"/><path class="cls-2" d="M54.52,37.3c0,15.06-12.2,27.26-27.26,27.26S0,52.35,0,37.3,12.23,9.18,27.26,11.76c15.67-2.79,27.26,10.49,27.26,25.54Z"/><path class="cls-4" d="M27.26,11.76C12.23,9.18,0,22.24,0,37.3c0,9.72,5.09,18.25,12.75,23.07,2.04,.49,4.16,.75,6.35,.75,15.06,0,27.26-12.2,27.26-27.26,0-9.04-4.18-17.44-10.92-22.1-2.56-.49-5.3-.52-8.18,0Z"/><path class="cls-3" d="M29.12,5.43s4.32,5.65,12.47,5.76c8.15,.11,17.04-5.36,17.04-5.36C58.63,5.83,49.89,.11,41.74,0c-8.15-.11-12.62,5.42-12.62,5.42Z"/><path class="cls-1" d="M41.59,11.19c8.15,.11,17.04-5.36,17.04-5.36,0,0-.06-.04-.17-.11l-29.25-.18c.64,.77,4.89,5.56,12.38,5.66Z"/><circle class="cls-5" cx="17.6" cy="31.29" r="10.3"/></g></g></svg>