<?xml version="1.0" encoding="UTF-8"?><svg id="Livello_2" xmlns="http://www.w3.org/2000/svg" xmlns:xlink="http://www.w3.org/1999/xlink" viewBox="0 0 50.9 92.47"><defs><style>.cls-1{fill:#cf9400;}.cls-2{fill:#fff56d;}.cls-3{fill:#c2710d;}.cls-4{fill:#e8ac0f;}.cls-5{fill:#de7b00;}.cls-6{fill:#fecc19;}.cls-7{fill:#ffda4a;}.cls-8{fill:#428a1c;}.cls-9{fill:#50a822;}.cls-10{fill:#fffbc8;}.cls-11{clip-path:url(#clippath);}.cls-12{fill:none;}.cls-13{fill:#ffd978;}.cls-14{fill:#356f3d;}.cls-15{fill:#a8620b;}</style><clipPath id="clippath"><path class="cls-12" d="M43.98,65.01c0,15.57-9.85,23.6-21.99,23.6S0,80.57,0,65.01,9.85,32.24,21.99,32.24s21.99,17.2,21.99,32.76Z"/></clipPath></defs><g id="fruits"><g><g><path class="cls-1" d="M43.98,65.01c0,15.57-9.85,23.6-21.99,23.6S0,80.57,0,65.01,9.85,32.24,21.99,32.24s21.99,17.2,21.99,32.76Z"/><path class="cls-4" d="M21.99,32.24C9.85,32.24,0,49.44,0,65.01c0,5.71,1.33,10.4,3.6,14.05,3.77,2.91,8.54,4.39,13.75,4.39,12.15,0,21.99-8.04,21.99-23.6,0-8.35-2.83-17.16-7.33-23.54-3-2.54-6.41-4.06-10.02-4.06Z"/><path class="cls-13" d="M19.61,56.46c-1.43,6.1-5.67,10.32-9.46,9.42-3.79-.89-5.71-6.56-4.28-12.65s5.67-10.32,9.46-9.42c3.79,.89,5.71,6.56,4.28,12.65Z"/><g class="cls-11"><g><path class="cls-5" d="M4.32,43.38l-.27-.27c-.47-.46-.93-.78-1.42-1.11-1.03-.7-2.09-1.42-3.13-3.47l-.27-.54,.6-.02c.82-.03,1.83-1.36,2.71-2.53,.49-.65,1-1.32,1.51-1.84l.27-.28,.27,.27c.47,.46,.93,.78,1.42,1.11,1.03,.7,2.09,1.42,3.13,3.47l.27,.54-.6,.02c-.82,.03-1.83,1.36-2.71,2.53-.49,.65-1,1.32-1.51,1.84l-.27,.28ZM.42,38.61c.87,1.54,1.73,2.12,2.64,2.74,.41,.28,.82,.56,1.24,.93,.39-.44,.8-.97,1.19-1.49,.91-1.2,1.78-2.35,2.73-2.72-.87-1.54-1.73-2.12-2.64-2.74-.41-.28-.82-.56-1.24-.93-.39,.44-.8,.97-1.19,1.49-.91,1.2-1.78,2.35-2.73,2.72Z"/><path class="cls-5" d="M13.57,43.38l-.27-.27c-.47-.46-.93-.78-1.42-1.11-1.03-.7-2.09-1.42-3.13-3.47l-.27-.54,.6-.02c.82-.03,1.83-1.36,2.71-2.53,.49-.65,1-1.32,1.51-1.84l.27-.28,.27,.27c.47,.46,.93,.78,1.42,1.11,1.03,.7,2.09,1.42,3.13,3.47l.27,.54-.6,.02c-.82,.03-1.83,1.36-2.71,2.53-.49,.65-1,1.32-1.51,1.84l-.27,.28Zm-3.9-4.77c.87,1.54,1.73,2.12,2.64,2.74,.41,.28,.82,.56,1.24,.93,.39-.44,.8-.97,1.19-1.49,.91-1.2,1.78-2.35,2.73-2.72-.87-1.54-1.73-2.12-2.64-2.74-.41-.28-.82-.56-1.24-.93-.39,.44-.8,.97-1.19,1.49-.91,1.2-1.78,2.35-2.73,2.72Z"/><path class="cls-5" d="M22.81,43.38l-.27-.27c-.47-.46-.93-.78-1.42-1.11-1.03-.7-2.09-1.42-3.13-3.47l-.27-.54,.6-.02c.82-.03,1.83-1.36,2.71-2.53,.49-.65,1-1.32,1.51-1.84l.27-.28,.27,.27c.47,.46,.93,.78,1.42,1.11,1.03,.7,2.09,1.42,3.13,3.47l.27,.54-.6,.02c-.82,.03-1.83,1.36-2.71,2.53-.49,.65-1,1.32-1.51,1.84l-.27,.28Zm-3.9-4.77c.87,1.54,1.73,2.12,2.64,2.74,.41,.28,.82,.56,1.24,.93,.39-.44,.8-.97,1.19-1.49,.91-1.2,1.78-2.35,2.73-2.72-.87-1.54-1.73-2.12-2.64-2.74-.41-.28-.82-.56-1.24-.93-.39,.44-.8,.97-1.19,1.49-.91,1.2-1.78,2.35-2.73,2.72Z"/><path class="cls-5" d="M31.85,43.38l-.27-.27c-.47-.46-.93-.78-1.42-1.11-1.03-.7-2.09-1.42-3.13-3.47l-.27-.54,.6-.02c.82-.03,1.83-1.36,2.71-2.53,.49-.65,1-1.32,1.51-1.84l.27-.28,.27,.27c.47,.46,.93,.78,1.42,1.11,1.02,.7,2.09,1.42,3.13,3.47l.27,.54-.6,.02c-.82,.03-1.83,1.36-2.71,2.53-.49,.65-1,1.32-1.51,1.84l-.27,.28Zm-3.9-4.77c.87,1.54,1.73,2.12,2.64,2.74,.41,.28,.82,.56,1.24,.93,.39-.44,.8-.97,1.19-1.49,.91-1.2,1.78-2.35,2.73-2.72-.87-1.54-1.73-2.12-2.64-2.74-.41-.28-.82-.56-1.24-.93-.39,.44-.8,.97-1.19,1.49-.91,1.2-1.78,2.35-2.73,2.72Z"/><path class="cls-5" d="M4.41,52.62l-.27-.27c-.47-.46-.93-.78-1.42-1.11-1.03-.7-2.09-1.42-3.13-3.47l-.27-.54,.6-.03c.82-.03,1.83-1.36,2.71-2.53,.49-.65,1-1.32,1.51-1.84l.27-.28,.27,.27c.47,.46,.93,.78,1.42,1.11,1.03,.7,2.09,1.42,3.13,3.47l.27,.54-.6,.03c-.82,.03-1.83,1.36-2.71,2.53-.49,.65-1,1.32-1.51,1.84l-.27,.28Zm-3.9-4.77c.87,1.54,1.73,2.12,2.64,2.74,.41,.28,.82,.56,1.24,.93,.39-.44,.8-.97,1.19-1.49,.91-1.2,1.78-2.35,2.73-2.72-.87-1.54-1.73-2.12-2.64-2.74-.41-.28-.82-.56-1.24-.93-.39,.44-.8,.97-1.19,1.49-.91,1.2-1.78,2.35-2.73,2.72Z"/><path class="cls-5" d="M13.65,52.62l-.27-.27c-.47-.46-.93-.78-1.42-1.11-1.03-.7-2.09-1.42-3.13-3.47l-.27-.54,.6-.03c.82-.03,1.83-1.36,2.71-2.53,.49-.65,1-1.32,1.51-1.84l.27-.28,.27,.27c.47,.46,.93,.78,1.42,1.11,1.03,.7,2.09,1.42,3.13,3.47l.27,.54-.6,.03c-.82,.03-1.83,1.36-2.71,2.53-.49,.65-1,1.32-1.51,1.84l-.27,.28Zm-3.9-4.77c.87,1.54,1.73,2.12,2.64,2.74,.41,.28,.82,.56,1.24,.93,.39-.44,.8-.97,1.19-1.49,.91-1.2,1.78-2.35,2.73-2.72-.87-1.54-1.73-2.12-2.64-2.74-.41-.28-.82-.56-1.24-.93-.39,.44-.8,.97-1.19,1.49-.91,1.2-1.78,2.35-2.73,2.72Z"/><path class="cls-5" d="M22.69,52.62l-.28-.27c-.47-.46-.93-.78-1.42-1.11-1.03-.7-2.09-1.42-3.13-3.47l-.27-.54,.6-.03c.82-.03,1.83-1.36,2.71-2.53,.49-.65,1-1.32,1.51-1.84l.27-.28,.27,.27c.47,.46,.93,.78,1.42,1.11,1.03,.7,2.09,1.42,3.13,3.47l.27,.54-.6,.03c-.82,.03-1.83,1.36-2.71,2.53-.49,.65-1,1.32-1.51,1.84l-.27,.28Zm-3.9-4.77c.87,1.54,1.73,2.12,2.64,2.74,.41,.28,.82,.56,1.24,.93,.39-.44,.8-.97,1.19-1.49,.91-1.2,1.78-2.35,2.73-2.72-.87-1.54-1.73-2.12-2.64-2.74-.41-.28-.82-.56-1.24-.93-.39,.44-.8,.97-1.19,1.49-.91,1.2-1.78,2.35-2.73,2.72Z"/><path class="cls-5" d="M31.93,52.62l-.27-.27c-.47-.46-.93-.78-1.42-1.11-1.03-.7-2.09-1.42-3.13-3.47l-.27-.54,.6-.03c.82-.03,1.83-1.36,2.71-2.53,.49-.65,1-1.32,1.51-1.84l.27-.28,.27,.27c.47,.46,.93,.78,1.42,1.11,1.03,.7,2.09,1.42,3.13,3.47l.27,.54-.6,.03c-.82,.03-1.83,1.36-2.71,2.53-.49,.65-1,1.32-1.51,1.84l-.27,.28Zm-3.9-4.77c.87,1.54,1.73,2.12,2.64,2.74,.41,.28,.82,.56,1.24,.93,.39-.44,.8-.97,1.19-1.49,.91-1.2,1.78-2.35,2.73-2.72-.87-1.54-1.73-2.12-2.64-2.74-.41-.28-.82-.56-1.24-.93-.39,.44-.8,.97-1.19,1.49-.91,1.2-1.78,2.35-2.73,2.72Z"/><path class="cls-5" d="M4.51,61.66l-.27-.27c-.47-.46-.93-.78-1.42-1.11-1.02-.7-2.08-1.42-3.13-3.47l-.27-.54,.6-.02c.82-.03,1.83-1.36,2.71-2.53,.49-.65,1-1.32,1.51-1.84l.27-.28,.27,.27c.47,.46,.93,.78,1.42,1.11,1.03,.7,2.09,1.42,3.13,3.47l.27,.54-.6,.02c-.82,.03-1.83,1.36-2.71,2.53-.49,.65-1,1.32-1.51,1.84l-.27,.28Zm-3.9-4.77c.87,1.54,1.73,2.12,2.64,2.74,.41,.28,.82,.56,1.24,.93,.39-.44,.8-.97,1.19-1.49,.91-1.2,1.78-2.35,2.73-2.72-.87-1.54-1.73-2.12-2.64-2.74-.41-.28-.82-.56-1.24-.93-.39,.44-.8,.97-1.19,1.49-.91,1.2-1.78,2.35-2.73,2.72Z"/><path class="cls-5" d="M13.76,61.66l-.27-.27c-.47-.46-.93-.78-1.42-1.11-1.03-.7-2.08-1.42-3.13-3.47l-.27-.54,.6-.02c.82-.03,1.83-1.36,2.71-2.53,.49-.65,1-1.32,1.51-1.84l.27-.28,.28,.27c.47,.46,.93,.78,1.42,1.11,1.03,.7,2.09,1.42,3.13,3.47l.27,.54-.6,.02c-.82,.03-1.83,1.36-2.71,2.53-.49,.65-1,1.32-1.51,1.84l-.27,.28Zm-3.9-4.77c.87,1.54,1.73,2.12,2.64,2.74,.41,.28,.82,.56,1.24,.93,.39-.44,.8-.97,1.19-1.49,.91-1.2,1.78-2.35,2.73-2.72-.87-1.54-1.73-2.12-2.64-2.74-.41-.28-.82-.56-1.24-.93-.39,.44-.8,.97-1.19,1.49-.91,1.2-1.78,2.35-2.73,2.72Z"/><path class="cls-5" d="M23.01,61.66l-.28-.27c-.47-.46-.93-.78-1.42-1.11-1.03-.7-2.09-1.42-3.13-3.47l-.27-.54,.6-.02c.82-.03,1.83-1.36,2.71-2.53,.49-.65,1-1.32,1.51-1.84l.27-.28,.27,.27c.47,.46,.93,.78,1.42,1.11,1.03,.7,2.09,1.42,3.13,3.47l.27,.54-.6,.02c-.82,.03-1.83,1.36-2.71,2.53-.49,.65-1,1.32-1.51,1.84l-.27,.28Zm-3.9-4.77c.87,1.54,1.73,2.12,2.64,2.74,.41,.28,.82,.56,1.24,.93,.39-.44,.8-.97,1.19-1.48,.91-1.2,1.78-2.35,2.73-2.72-.87-1.54-1.73-2.12-2.64-2.74-.41-.28-.82-.56-1.24-.93-.39,.44-.8,.97-1.19,1.49-.91,1.2-1.78,2.35-2.73,2.72Z"/><path class="cls-5" d="M32.04,61.66l-.27-.27c-.47-.46-.93-.78-1.42-1.11-1.03-.7-2.08-1.42-3.13-3.47l-.27-.54,.6-.02c.82-.03,1.83-1.36,2.71-2.53,.49-.65,1-1.32,1.51-1.84l.27-.28,.27,.27c.47,.46,.93,.78,1.42,1.11,1.03,.7,2.09,1.42,3.13,3.47l.27,.54-.6,.02c-.82,.03-1.83,1.36-2.71,2.53-.49,.65-1,1.32-1.51,1.84l-.27,.28Zm-3.9-4.77c.87,1.54,1.73,2.12,2.64,2.74,.41,.28,.82,.56,1.24,.93,.39-.44,.8-.97,1.19-1.49,.91-1.2,1.78-2.35,2.73-2.72-.87-1.54-1.73-2.12-2.64-2.74-.41-.28-.82-.56-1.24-.93-.39,.44-.8,.97-1.19,1.49-.91,1.2-1.78,2.35-2.73,2.72Z"/><path class="cls-5" d="M4.32,70.69l-.28-.27c-.47-.46-.93-.78-1.42-1.11-1.03-.7-2.09-1.42-3.13-3.47l-.27-.54,.6-.02c.82-.03,1.82-1.36,2.71-2.53,.49-.65,1-1.32,1.51-1.84l.27-.28,.27,.27c.47,.46,.93,.78,1.42,1.11,1.03,.7,2.08,1.42,3.13,3.47l.27,.54-.6,.02c-.82,.03-1.83,1.36-2.71,2.53-.49,.65-1,1.32-1.51,1.84l-.27,.28Zm-3.9-4.77c.87,1.54,1.73,2.12,2.64,2.74,.41,.28,.82,.56,1.24,.93,.39-.44,.8-.97,1.19-1.49,.91-1.2,1.78-2.35,2.73-2.72-.87-1.54-1.73-2.12-2.64-2.74-.41-.28-.82-.56-1.24-.93-.39,.44-.8,.97-1.19,1.49-.91,1.2-1.78,2.35-2.73,2.72Z"/><path class="cls-5" d="M13.57,70.69l-.28-.27c-.47-.46-.93-.78-1.42-1.11-1.03-.7-2.09-1.42-3.13-3.47l-.27-.54,.6-.02c.82-.03,1.82-1.36,2.71-2.53,.49-.65,1-1.32,1.51-1.84l.27-.28,.27,.27c.47,.46,.93,.78,1.42,1.11,1.03,.7,2.08,1.42,3.13,3.47l.27,.54-.6,.02c-.82,.03-1.83,1.36-2.71,2.53-.49,.65-1,1.32-1.51,1.84l-.27,.28Zm-3.9-4.77c.87,1.54,1.73,2.12,2.64,2.74,.41,.28,.82,.56,1.24,.93,.39-.44,.8-.97,1.19-1.49,.91-1.2,1.78-2.35,2.73-2.72-.87-1.54-1.73-2.12-2.64-2.74-.41-.28-.82-.56-1.24-.93-.39,.44-.8,.97-1.19,1.49-.91,1.2-1.78,2.35-2.73,2.72Z"/><path class="cls-5" d="M22.81,70.69l-.28-.27c-.47-.46-.93-.78-1.42-1.11-1.03-.7-2.09-1.42-3.13-3.47l-.27-.54,.6-.02c.82-.03,1.82-1.36,2.71-2.53,.49-.65,1-1.32,1.51-1.84l.27-.28,.27,.27c.47,.46,.93,.78,1.42,1.11,1.03,.7,2.08,1.42,3.13,3.47l.27,.54-.6,.02c-.82,.03-1.83,1.36-2.71,2.53-.49,.65-1,1.32-1.51,1.84l-.27,.28Zm-3.9-4.77c.87,1.54,1.73,2.12,2.64,2.74,.41,.28,.82,.56,1.24,.93,.39-.44,.8-.97,1.19-1.49,.91-1.2,1.78-2.35,2.73-2.72-.87-1.54-1.73-2.12-2.64-2.74-.41-.28-.82-.56-1.24-.93-.39,.44-.8,.97-1.19,1.49-.91,1.2-1.78,2.35-2.73,2.72Z"/><path class="cls-5" d="M31.85,70.69l-.28-.27c-.47-.46-.93-.78-1.42-1.11-1.03-.7-2.09-1.42-3.13-3.47l-.27-.54,.6-.02c.82-.03,1.82-1.36,2.71-2.53,.49-.65,1-1.32,1.51-1.84l.27-.28,.27,.27c.47,.46,.93,.78,1.42,1.11,1.02,.7,2.08,1.42,3.13,3.47l.27,.54-.6,.02c-.82,.03-1.83,1.36-2.71,2.53-.49,.65-1,1.32-1.51,1.84l-.27,.28Zm-3.9-4.77c.87,1.54,1.73,2.12,2.64,2.74,.41,.28,.82,.56,1.24,.93,.39-.44,.8-.97,1.19-1.49,.91-1.2,1.78-2.35,2.73-2.72-.87-1.54-1.73-2.12-2.64-2.74-.41-.28-.82-.56-1.24-.93-.39,.44-.8,.97-1.19,1.49-.91,1.2-1.78,2.35-2.73,2.72Z"/><path class="cls-5" d="M4.41,79.93l-.27-.27c-.47-.46-.93-.78-1.42-1.11-1.03-.7-2.09-1.42-3.13-3.47l-.27-.54,.6-.02c.82-.03,1.82-1.36,2.71-2.53,.49-.65,1-1.32,1.51-1.84l.27-.28,.27,.27c.47,.46,.93,.78,1.42,1.11,1.02,.7,2.08,1.42,3.13,3.47l.27,.54-.6,.02c-.82,.03-1.83,1.36-2.71,2.53-.49,.65-1,1.32-1.51,1.84l-.27,.28Zm-3.9-4.77c.87,1.54,1.73,2.12,2.64,2.74,.41,.28,.82,.56,1.24,.93,.39-.44,.8-.97,1.19-1.49,.91-1.2,1.78-2.35,2.73-2.72-.87-1.54-1.73-2.12-2.64-2.74-.41-.28-.82-.56-1.24-.93-.39,.44-.8,.97-1.19,1.49-.91,1.2-1.78,2.35-2.73,2.72Z"/><path class="cls-5" d="M13.65,79.93l-.27-.27c-.47-.46-.93-.78-1.42-1.11-1.03-.7-2.09-1.42-3.13-3.47l-.27-.54,.6-.02c.82-.03,1.82-1.36,2.71-2.53,.49-.65,1-1.32,1.51-1.84l.27-.28,.27,.27c.47,.46,.93,.78,1.42,1.11,1.03,.7,2.08,1.42,3.13,3.47l.27,.54-.6,.02c-.82,.03-1.83,1.36-2.71,2.53-.49,.65-1,1.32-1.51,1.84l-.27,.28Zm-3.9-4.77c.87,1.54,1.73,2.12,2.64,2.74,.41,.28,.82,.56,1.24,.93,.39-.44,.8-.97,1.19-1.49,.91-1.2,1.78-2.35,2.73-2.72-.87-1.54-1.73-2.12-2.64-2.74-.41-.28-.82-.56-1.24-.93-.39,.44-.8,.97-1.19,1.49-.91,1.2-1.78,2.35-2.73,2.72Z"/><path class="cls-5" d="M22.69,79.93l-.28-.27c-.47-.46-.93-.78-1.42-1.11-1.03-.7-2.09-1.42-3.13-3.47l-.27-.54,.6-.02c.82-.03,1.82-1.36,2.71-2.53,.49-.65,1-1.32,1.51-1.84l.27-.28,.27,.27c.47,.46,.93,.78,1.42,1.11,1.03,.7,2.08,1.42,3.13,3.47l.27,.54-.6,.02c-.82,.03-1.83,1.36-2.71,2.53-.49,.65-1,1.32-1.51,1.84l-.27,.28Zm-3.9-4.77c.87,1.54,1.73,2.12,2.64,2.74,.41,.28,.82,.56,1.24,.93,.39-.44,.8-.97,1.19-1.49,.91-1.2,1.78-2.35,2.73-2.72-.87-1.54-1.73-2.12-2.64-2.74-.41-.28-.82-.56-1.24-.93-.39,.44-.8,.97-1.19,1.49-.91,1.2-1.78,2.35-2.73,2.72Z"/><path class="cls-5" d="M31.93,79.93l-.27-.27c-.47-.46-.93-.78-1.42-1.11-1.03-.7-2.09-1.42-3.13-3.47l-.27-.54,.6-.02c.82-.03,1.82-1.36,2.71-2.53,.49-.65,1-1.32,1.51-1.84l.27-.28,.27,.27c.47,.46,.93,.78,1.42,1.11,1.02,.7,2.08,1.42,3.13,3.47l.27,.54-.6,.02c-.82,.03-1.83,1.36-2.71,2.53-.49,.65-1,1.32-1.51,1.84l-.27,.28Zm-3.9-4.77c.87,1.54,1.73,2.12,2.64,2.74,.41,.28,.82,.56,1.24,.93,.39-.44,.8-.97,1.19-1.49,.91-1.2,1.78-2.35,2.73-2.72-.87-1.54-1.73-2.12-2.64-2.74-.41-.28-.82-.56-1.24-.93-.39,.44-.8,.97-1.19,1.49-.91,1.2-1.78,2.35-2.73,2.72Z"/><path class="cls-5" d="M4.51,88.97l-.27-.27c-.47-.46-.93-.78-1.42-1.11-1.03-.7-2.09-1.42-3.13-3.47l-.27-.54,.6-.02c.82-.03,1.83-1.36,2.71-2.53,.49-.65,1-1.32,1.51-1.84l.27-.28,.27,.27c.47,.46,.93,.78,1.42,1.11,1.03,.7,2.09,1.42,3.13,3.47l.27,.54-.6,.02c-.82,.03-1.83,1.36-2.71,2.53-.49,.65-1,1.32-1.51,1.84l-.27,.28Zm-3.9-4.77c.87,1.54,1.73,2.12,2.64,2.74,.41,.28,.82,.56,1.24,.93,.39-.44,.8-.97,1.19-1.49,.91-1.2,1.78-2.35,2.73-2.72-.87-1.54-1.73-2.12-2.64-2.74-.41-.28-.82-.56-1.24-.93-.39,.44-.8,.97-1.19,1.49-.91,1.2-1.78,2.35-2.73,2.72Z"/><path class="cls-5" d="M13.76,88.97l-.27-.27c-.47-.46-.93-.78-1.42-1.11-1.03-.7-2.09-1.42-3.13-3.47l-.27-.54,.6-.02c.82-.03,1.83-1.36,2.71-2.53,.49-.65,1-1.32,1.51-1.84l.27-.28,.27,.27c.47,.46,.93,.78,1.42,1.11,1.03,.7,2.09,1.42,3.13,3.47l.27,.54-.6,.02c-.82,.03-1.83,1.36-2.71,2.53-.49,.65-1,1.32-1.51,1.84l-.27,.28Zm-3.9-4.77c.87,1.54,1.73,2.12,2.64,2.74,.41,.28,.82,.56,1.24,.93,.39-.44,.8-.97,1.19-1.49,.91-1.2,1.78-2.35,2.73-2.72-.87-1.54-1.73-2.12-2.64-2.74-.41-.28-.82-.56-1.24-.93-.39,.44-.8,.97-1.19,1.49-.91,1.2-1.78,2.35-2.73,2.72Z"/><path class="cls-5" d="M23.01,88.97l-.28-.27c-.47-.46-.93-.78-1.42-1.11-1.03-.7-2.09-1.42-3.13-3.47l-.27-.54,.6-.02c.82-.03,1.83-1.36,2.71-2.53,.49-.65,1-1.32,1.51-1.84l.27-.28,.27,.27c.47,.46,.93,.78,1.42,1.11,1.03,.7,2.08,1.42,3.13,3.47l.27,.54-.6,.02c-.82,.03-1.83,1.36-2.71,2.53-.49,.65-1,1.32-1.51,1.84l-.27,.28Zm-3.9-4.77c.87,1.54,1.73,2.12,2.64,2.74,.41,.28,.82,.56,1.24,.93,.39-.44,.8-.97,1.19-1.49,.91-1.2,1.78-2.35,2.73-2.72-.87-1.54-1.73-2.12-2.64-2.74-.41-.28-.82-.56-1.24-.93-.39,.44-.8,.97-1.19,1.49-.91,1.2-1.78,2.35-2.73,2.72Z"/><path class="cls-5" d="M32.04,88.97l-.27-.27c-.47-.46-.93-.78-1.42-1.11-1.03-.7-2.09-1.42-3.13-3.47l-.27-.54,.6-.02c.82-.03,1.83-1.36,2.71-2.53,.49-.65,1-1.32,1.51-1.84l.27-.28,.27,.27c.47,.46,.93,.78,1.42,1.11,1.02,.7,2.08,1.42,3.13,3.47l.27,.54-.6,.02c-.82,.03-1.83,1.36-2.71,2.53-.49,.65-1,1.32-1.51,1.84l-.27,.28Zm-3.9-4.77c.87,1.54,1.73,2.12,2.64,2.74,.41,.28,.82,.56,1.24,.93,.39-.44,.8-.97,1.19-1.49,.91-1.2,1.78-2.35,2.73-2.72-.87-1.54-1.73-2.12-2.64-2.74-.41-.28-.82-.56-1.24-.93-.39,.44-.8,.97-1.19,1.49-.91,1.2-1.78,2.35-2.73,2.72Z"/><path class="cls-5" d="M40.81,43.38l-.27-.27c-.47-.46-.93-.78-1.42-1.11-1.02-.7-2.08-1.42-3.13-3.47l-.27-.54,.6-.02c.82-.03,1.83-1.36,2.71-2.53,.49-.65,1-1.32,1.51-1.84l.27-.28,.28,.27c.47,.46,.93,.78,1.42,1.11,1.03,.7,2.09,1.42,3.13,3.47l.27,.54-.6,.02c-.82,.03-1.83,1.36-2.71,2.53-.49,.65-1,1.32-1.51,1.84l-.27,.28Zm-3.9-4.77c.87,1.54,1.73,2.12,2.64,2.74,.41,.28,.82,.56,1.24,.93,.39-.44,.8-.97,1.19-1.49,.91-1.2,1.78-2.35,2.73-2.72-.87-1.54-1.73-2.12-2.64-2.74-.41-.28-.82-.56-1.24-.93-.39,.44-.8,.97-1.19,1.49-.91,1.2-1.78,2.35-2.73,2.72Z"/><path class="cls-5" d="M40.89,52.62l-.28-.27c-.47-.46-.93-.78-1.42-1.11-1.03-.7-2.09-1.42-3.13-3.47l-.27-.54,.6-.03c.82-.03,1.83-1.36,2.71-2.53,.49-.65,1-1.32,1.51-1.84l.27-.28,.27,.27c.47,.46,.93,.78,1.42,1.11,1.03,.7,2.09,1.42,3.13,3.47l.27,.54-.6,.03c-.82,.03-1.83,1.36-2.71,2.53-.49,.65-1,1.32-1.51,1.84l-.27,.28Zm-3.9-4.77c.87,1.54,1.73,2.12,2.64,2.74,.41,.28,.82,.56,1.24,.93,.39-.44,.8-.97,1.19-1.49,.91-1.2,1.78-2.35,2.73-2.72-.87-1.54-1.73-2.12-2.64-2.74-.41-.28-.82-.56-1.24-.93-.39,.44-.8,.97-1.19,1.49-.91,1.2-1.78,2.35-2.73,2.72Z"/><path class="cls-5" d="M41,61.66l-.28-.27c-.47-.46-.93-.78-1.42-1.11-1.02-.7-2.08-1.42-3.13-3.47l-.27-.54,.6-.02c.82-.03,1.83-1.36,2.71-2.53,.49-.65,1-1.32,1.51-1.84l.27-.28,.27,.27c.47,.46,.93,.78,1.42,1.11,1.03,.7,2.09,1.42,3.13,3.47l.27,.54-.6,.02c-.82,.03-1.83,1.36-2.71,2.53-.49,.65-1,1.32-1.51,1.84l-.27,.28Zm-3.9-4.77c.87,1.54,1.73,2.12,2.64,2.74,.41,.28,.82,.56,1.24,.93,.39-.44,.8-.97,1.19-1.48,.91-1.2,1.78-2.35,2.73-2.72-.87-1.54-1.73-2.12-2.64-2.74-.41-.28-.82-.56-1.24-.93-.39,.44-.8,.97-1.19,1.49-.91,1.2-1.78,2.35-2.73,2.72Z"/><path class="cls-5" d="M40.81,70.69l-.27-.27c-.47-.46-.93-.78-1.42-1.11-1.03-.7-2.09-1.42-3.13-3.47l-.27-.54,.6-.02c.82-.03,1.83-1.36,2.71-2.53,.49-.65,1-1.32,1.51-1.84l.27-.28,.27,.27c.47,.46,.93,.78,1.42,1.11,1.03,.7,2.09,1.42,3.13,3.47l.27,.54-.6,.02c-.82,.03-1.83,1.36-2.71,2.53-.49,.65-1,1.32-1.51,1.84l-.27,.28Zm-3.9-4.77c.87,1.54,1.73,2.12,2.64,2.74,.41,.28,.82,.56,1.24,.93,.39-.44,.8-.97,1.19-1.49,.91-1.2,1.78-2.35,2.73-2.72-.87-1.54-1.73-2.12-2.64-2.74-.41-.28-.82-.56-1.24-.93-.39,.44-.8,.97-1.19,1.49-.91,1.2-1.78,2.35-2.73,2.72Z"/><path class="cls-5" d="M40.89,79.93l-.28-.27c-.47-.46-.93-.78-1.42-1.11-1.03-.7-2.09-1.42-3.13-3.47l-.27-.54,.6-.02c.82-.03,1.82-1.36,2.71-2.53,.49-.65,1-1.32,1.51-1.84l.27-.28,.27,.27c.47,.46,.93,.78,1.42,1.11,1.03,.7,2.08,1.42,3.13,3.47l.27,.54-.6,.02c-.82,.03-1.83,1.36-2.71,2.53-.49,.65-1,1.32-1.51,1.84l-.27,.28Zm-3.9-4.77c.87,1.54,1.73,2.12,2.64,2.74,.41,.28,.82,.56,1.24,.93,.39-.44,.8-.97,1.19-1.49,.91-1.2,1.78-2.35,2.73-2.72-.87-1.54-1.73-2.12-2.64-2.74-.41-.28-.82-.56-1.24-.93-.39,.44-.8,.97-1.19,1.49-.91,1.2-1.78,2.35-2.73,2.72Z"/><path class="cls-5" d="M41,88.97l-.28-.27c-.47-.46-.93-.78-1.42-1.11-1.03-.7-2.09-1.42-3.13-3.47l-.27-.54,.6-.02c.82-.03,1.83-1.36,2.71-2.53,.49-.65,1-1.32,1.51-1.84l.27-.28,.27,.27c.47,.46,.93,.78,1.42,1.11,1.03,.7,2.08,1.42,3.13,3.47l.27,.54-.6,.02c-.82,.03-1.83,1.36-2.71,2.53-.49,.65-1,1.32-1.51,1.84l-.27,.28Zm-3.9-4.77c.87,1.54,1.73,2.12,2.64,2.74,.41,.28,.82,.56,1.24,.93,.39-.44,.8-.97,1.19-1.49,.91-1.2,1.78-2.35,2.73-2.72-.87-1.54-1.73-2.12-2.64-2.74-.41-.28-.82-.56-1.24-.93-.39,.44-.8,.97-1.19,1.49-.91,1.2-1.78,2.35-2.73,2.72Z"/></g></g><g><path class="cls-14" d="M20.28,19.77c-1.2-.87-.81-8.64-1.1-11.67-.4-4.32-1.85-8.1-1.85-8.1,0,0,5,2.91,7.33,8.62,1.42,3.49,2.9,10.25,1.6,10.66s-4.78,1.35-5.98,.48Z"/><path class="cls-14" d="M27.11,25.07c1.53-.31,2.45-8.94,3.66-12.17,1.72-4.6,9.1-7.73,9.1-7.73,0,0-7.73-.64-13.23,4.66-3.75,3.61-7.22,13.34-5.96,14.51,1.27,1.17,4.9,1.03,6.43,.72Z"/><path class="cls-14" d="M17.89,24.33c-1.53-.31-3.2-7.46-4.41-10.69-1.72-4.6-4.39-8.01-4.39-8.01,0,0,6.19,.49,10.38,5.58,2.55,3.11,6.11,11.23,4.85,12.4-1.27,1.17-4.9,1.03-6.43,.72Z"/><path class="cls-8" d="M25.92,29.68c1.56,.03,4.75-6.58,6.63-9.47,2.68-4.11,6.02-6.87,6.02-6.87,0,0-6.15-.87-11.34,3.18-3.17,2.48-8.41,9.63-7.43,11.05,.98,1.42,4.55,2.07,6.12,2.1Z"/><path class="cls-8" d="M17.97,31.21c-1.56-.01-4.63-7.67-6.42-10.62C9,16.4,1.71,14.06,1.71,14.06c0,0,7.47-2.07,13.87,2.1,4.36,2.84,9.59,11.75,8.57,13.14-1.02,1.39-4.62,1.93-6.18,1.92Z"/><path class="cls-9" d="M18.85,34.83c-2.07-1.7-.72-8.58-.24-11.59,.73-4.51,.51-8.43,.51-8.43,0,0,3.01,3.49,4.91,9.36,1.16,3.58,2.13,10.44,.8,10.75-1.33,.31-3.86,1.65-5.98-.09Z"/><path class="cls-9" d="M26.56,35.51c2.98-.27,4.52-4.24,6.41-6.38,2.69-3.05,5.91-4.74,5.91-4.74,0,0-5.55-2.17-10.53,.27-3.04,1.48-8.25,6.65-7.44,8.14,.81,1.49,4.19,2.85,5.65,2.72Z"/><path class="cls-9" d="M16.62,35.51c-2.98-.27-4.52-4.24-6.41-6.38-2.69-3.05-5.91-4.74-5.91-4.74,0,0,5.55-2.17,10.53,.27,3.04,1.48,8.25,6.65,7.44,8.14-.81,1.49-4.19,2.85-5.65,2.72Z"/></g></g><g><path class="cls-6" d="M19.66,86.14l.18,.19c3.68,2.86,8.83,5.25,15.18,5,10.21-.41,12.33-2.04,15.53-5.05l-16.52-22.02-14.37,21.89Z"/><path class="cls-2" d="M47.69,88.49l-15.75-20.76-13.46,18.39,1.29,1.05c3.68,2.86,8.9,4.22,15.25,4.22,4.75,0,9.31-1.14,12.67-2.9Z"/><path class="cls-10" d="M29.75,85.29c-8.11,0-.26-13.39,1.22-13.39s6.9,13.39-1.22,13.39Z"/><g><path class="cls-15" d="M49.68,86.94c-.59,.57-5.11,4.41-15.18,4.41-9.5,0-14.16-3.59-15.07-4.35-.44-.37-.77-.68-.99-.91l-.35,.74s.44,.51,1.34,1.28c.9,.77,5.57,4.35,15.07,4.35,10.08,0,14.59-3.84,15.18-4.41,.59-.57,1.22-1.22,1.22-1.22l-.38-.72c-.23,.23-.54,.54-.84,.83Z"/><path class="cls-3" d="M34.49,91.31c-9.5,0-14.16-3.59-15.07-4.35-.43-.37-.75-.67-.97-.89l-.37,.77s.44,.51,1.34,1.28c.9,.77,5.57,4.35,15.07,4.35,7.15,0,11.5-1.93,13.63-3.26l-.47-.81c-2.27,1.3-6.5,2.91-13.16,2.91Z"/></g><path class="cls-7" d="M43.05,88.3c0-.16,.11-2.7-1.13-3.69s-3.45-3.12-3.34-3.9-1.4-3.53-1.62-3.79c-.22-.26-1.46-2.65-1.46-2.65,0,0,1.19,2.75,1.13,3.38-.05,.62,.32,.73,.43,.88,.11,.16-.49,.05-.11,.99,.38,.94,2.05,2.34,1.67,2.65-.38,.31,.32,.36,.65,.57s.22,.62,.32,.99,1.83,.1,1.35,.88c-.49,.78-.97,1.04-.38,1.35,.59,.31,.97-.26,.97-.26,0,0,.05,.88,.49,1.61,.43,.73,1.02,.99,1.02,.99Z"/><path class="cls-7" d="M29.94,74.76c-.53,1.45-1.55,2.81-.73,2.66,.82-.15,.73-2.66,.73-2.66Z"/><path class="cls-7" d="M28.15,78.14c-.68,.97-.19,1.5-.29,1.69-.1,.19-.24,.48-.68,1.02-.44,.53-.53,1.35-.87,1.93s-.29,1.06-.05,1.06,1.26-1.16,1.02-.63c-.24,.53-2.32,4.4-2.18,4.45s1.79-.87,1.93-1.5,.92-3.19,.82-3.77c-.1-.58,.92-1.16,.82-2.37-.1-1.21-.1-1.5-.1-1.5l-.44-.39Z"/><path class="cls-7" d="M32.26,75c-.29,1.02-.68,8.85-.87,9.09-.19,.24,.53,.97,.29,1.06-.24,.1-1.31,1.69-1.4,1.93-.1,.24,.58,1.45,.73,1.45s.92-1.64,.97-2.32c.05-.68,.05-1.69,.15-2.66,.1-.97,.73-.63,.24-3.1-.48-2.47,.48-.24,.34-1.89-.15-1.64-.44-3.58-.44-3.58Z"/><path class="cls-7" d="M34.97,80.17c.24,1.84,1.98,4.3,2.13,5.8,.15,1.5,.19,2.22-.34,2.52-.53,.29-.58-.19-.58-1.35s-.1-1.31-.68-2.23c-.58-.92,.29-.19-.29-1.84-.58-1.64-1.45-1.84-.77-3.87s-.05-4.35-.05-4.35l.58,5.32Z"/></g></g></g></svg>