<?xml version="1.0" encoding="UTF-8"?><svg id="Livello_2" xmlns="http://www.w3.org/2000/svg" viewBox="0 0 41.86 63.89"><defs><style>.cls-1{fill:#db696c;}.cls-2{fill:#9e0007;}.cls-3{fill:#c52228;}.cls-4{fill:#50a822;}</style></defs><g id="fruits"><g><path class="cls-4" d="M19.47,23.92s-.03,0-.05,0c-.59-.03-1.04-.52-1.02-1.11,.01-.25,.28-6.14,1.26-11.52C21.02,3.83,25.39,.37,25.57,.22c.47-.36,1.14-.28,1.5,.19,.36,.46,.28,1.13-.19,1.49-.05,.04-4.17,4.41-4.92,11.07-.87,7.72-1.42,9.86-1.42,9.92-.03,.57-.5,1.02-1.07,1.02Z"/><g><path class="cls-4" d="M27.69,9.77c-.27,1.26-.71,2.54-1.35,3.79-2.8,5.52-8.18,8.41-12.01,6.46-.86-.44-1.86,6.34,1.1,7.84,3.83,1.95,9.21-.95,12.01-6.46,2.18-4.28,2.15-8.88,.24-11.63Z"/><path class="cls-4" d="M34.09,9.6c-.27,1.26-.71,2.54-1.35,3.79-2.8,5.52-8.18,8.41-12.01,6.46-.86-.44-1.86,6.34,1.1,7.84,3.83,1.95,9.21-.95,12.01-6.46,2.18-4.28,2.15-8.88,.24-11.63Z"/><path class="cls-4" d="M13.44,9.77c.27,1.26,.71,2.54,1.35,3.79,2.8,5.52,8.18,8.41,12.01,6.46,.86-.44,1.86,6.34-1.1,7.84-3.83,1.95-9.21-.95-12.01-6.46-2.18-4.28-2.15-8.88-.24-11.63Z"/><path class="cls-4" d="M7.04,9.6c.27,1.26,.71,2.54,1.35,3.79,2.8,5.52,8.18,8.41,12.01,6.46,.86-.44,1.86,6.34-1.1,7.84-3.83,1.95-9.21-.95-12.01-6.46-2.18-4.28-2.15-8.88-.24-11.63Z"/></g><g><path class="cls-2" d="M19.48,62.41c-3.13,1.21-6.66-.35-7.87-3.48-1.21-3.13,.35-6.66,3.48-7.87,3.13-1.21,6.66,.35,7.87,3.48,1.21,3.13-.35,6.66-3.48,7.87Z"/><path class="cls-3" d="M22.96,54.54c-1.21-3.13-4.73-4.69-7.87-3.48-1.53,.59-2.68,1.73-3.32,3.11-.11,.95,0,1.94,.37,2.89,1.21,3.13,4.73,4.69,7.87,3.48,1.53-.59,2.68-1.73,3.32-3.11,.11-.95,0-1.94-.37-2.89Z"/></g><g><circle class="cls-2" cx="34.27" cy="28.55" r="6.08"/><path class="cls-3" d="M34.27,22.47c-3.36,0-6.08,2.72-6.08,6.08,0,1.64,.65,3.12,1.71,4.22,.85,.45,1.81,.7,2.83,.7,3.36,0,6.08-2.72,6.08-6.08,0-1.64-.65-3.12-1.71-4.22-.85-.45-1.81-.7-2.83-.7Z"/></g><circle class="cls-3" cx="26.89" cy="25.44" r="6.08"/><g><path class="cls-2" d="M36.62,52.73c0,3.36-2.72,6.08-6.08,6.08s-6.08-2.72-6.08-6.08,2.72-6.08,6.08-6.08,6.08,2.72,6.08,6.08Z"/><path class="cls-3" d="M30.53,46.65c-3.36,0-6.08,2.72-6.08,6.08,0,1.64,.65,3.12,1.71,4.22,.85,.45,1.81,.7,2.83,.7,3.36,0,6.08-2.72,6.08-6.08,0-1.64-.65-3.12-1.71-4.22-.85-.45-1.81-.7-2.83-.7Z"/><path class="cls-3" d="M26.13,45.58c-3.36,0-6.08,2.72-6.08,6.08,0,1.64,.65,3.12,1.71,4.22,.85,.45,1.81,.7,2.83,.7,3.36,0,6.08-2.72,6.08-6.08,0-1.64-.65-3.12-1.71-4.22-.85-.45-1.81-.7-2.83-.7Z"/></g><circle class="cls-3" cx="16.4" cy="24.91" r="6.08"/><circle class="cls-3" cx="8.48" cy="28.46" r="6.08"/><circle class="cls-3" cx="6.08" cy="35.13" r="6.08"/><circle class="cls-3" cx="7.86" cy="43.4" r="6.08"/><g><path class="cls-2" d="M29.67,60.68c-1.59,2.96-5.28,4.07-8.24,2.48-2.96-1.59-4.07-5.28-2.48-8.24,1.59-2.96,5.28-4.07,8.24-2.48,2.96,1.59,4.07,5.28,2.48,8.24Z"/><path class="cls-3" d="M27.19,52.44c-2.96-1.59-6.65-.48-8.24,2.48-.78,1.44-.91,3.06-.49,4.52,.53,.79,1.26,1.47,2.16,1.96,2.96,1.59,6.65,.48,8.24-2.48,.78-1.44,.91-3.06,.49-4.52-.53-.79-1.26-1.47-2.16-1.96Z"/></g><g><path class="cls-2" d="M39.92,42.81c1.36,3.07-.03,6.67-3.11,8.02-3.07,1.36-6.67-.03-8.02-3.11-1.36-3.07,.03-6.67,3.11-8.02s6.67,.03,8.02,3.11Z"/><path class="cls-3" d="M31.9,39.7c-3.07,1.36-4.46,4.95-3.11,8.02,.66,1.5,1.86,2.59,3.26,3.17,.95,.07,1.94-.09,2.87-.5,3.07-1.36,4.46-4.95,3.11-8.02-.66-1.5-1.86-2.59-3.26-3.17-.95-.07-1.94,.09-2.87,.5Z"/></g><path class="cls-1" d="M34.63,45.52c0,1.03-.84,1.87-1.87,1.87s-1.87-.84-1.87-1.87,.84-1.87,1.87-1.87,1.87,.84,1.87,1.87Z"/><path class="cls-1" d="M30.54,50.41c0,1.03-.84,1.87-1.87,1.87s-1.87-.84-1.87-1.87,.84-1.87,1.87-1.87,1.87,.84,1.87,1.87Z"/><g><path class="cls-2" d="M41.86,37.53c0,3.36-2.72,6.08-6.08,6.08s-6.08-2.72-6.08-6.08,2.72-6.08,6.08-6.08,6.08,2.72,6.08,6.08Z"/><path class="cls-3" d="M35.78,31.45c-3.36,0-6.08,2.72-6.08,6.08,0,1.64,.65,3.12,1.71,4.22,.85,.45,1.81,.7,2.83,.7,3.36,0,6.08-2.72,6.08-6.08,0-1.64-.65-3.12-1.71-4.22-.85-.45-1.81-.7-2.83-.7Z"/></g><g><path class="cls-2" d="M32.47,47.94c-1.68,2.91-5.39,3.92-8.31,2.24s-3.92-5.4-2.24-8.31c1.68-2.91,5.39-3.92,8.31-2.24,2.91,1.68,3.92,5.4,2.24,8.31Z"/><path class="cls-3" d="M30.23,39.64c-2.91-1.68-6.63-.67-8.31,2.24-.82,1.42-.99,3.03-.62,4.51,.51,.81,1.22,1.51,2.1,2.02,2.91,1.68,6.63,.67,8.31-2.24,.82-1.42,.99-3.03,.62-4.51-.51-.81-1.22-1.51-2.1-2.02Z"/></g><path class="cls-1" d="M35.25,35.03c0,1.03-.84,1.87-1.87,1.87s-1.87-.84-1.87-1.87,.84-1.87,1.87-1.87,1.87,.84,1.87,1.87Z"/><circle class="cls-1" cx="24.5" cy="42.41" r="1.87"/><g><circle class="cls-2" cx="26.6" cy="35.31" r="6.08"/><path class="cls-3" d="M26.6,29.22c-3.36,0-6.08,2.72-6.08,6.08,0,1.64,.65,3.12,1.71,4.22,.85,.45,1.81,.7,2.83,.7,3.36,0,6.08-2.72,6.08-6.08,0-1.64-.65-3.12-1.71-4.22-.85-.45-1.81-.7-2.83-.7Z"/></g><circle class="cls-3" cx="12.13" cy="34.69" r="6.08"/><path class="cls-1" d="M24.76,56.1c0,1.03-.84,1.87-1.87,1.87s-1.87-.84-1.87-1.87,.84-1.87,1.87-1.87,1.87,.84,1.87,1.87Z"/><circle class="cls-3" cx="11.51" cy="50.6" r="6.08"/><path class="cls-1" d="M16.94,55.13c0,1.03-.84,1.87-1.87,1.87s-1.87-.84-1.87-1.87,.84-1.87,1.87-1.87,1.87,.84,1.87,1.87Z"/><g><path class="cls-2" d="M22.99,54.51c-2.5,2.24-6.35,2.03-8.59-.48-2.24-2.5-2.03-6.35,.48-8.59,2.5-2.24,6.35-2.03,8.59,.48s2.03,6.35-.48,8.59Z"/><path class="cls-3" d="M23.47,45.92c-2.24-2.5-6.09-2.72-8.59-.48-1.22,1.09-1.89,2.57-2.01,4.08,.23,.93,.68,1.81,1.36,2.57,2.24,2.5,6.09,2.72,8.59,.48,1.22-1.09,1.89-2.57,2.01-4.08-.23-.93-.68-1.81-1.36-2.57Z"/></g><path class="cls-1" d="M11.87,33.88c0,1.03-.84,1.87-1.87,1.87s-1.87-.84-1.87-1.87,.84-1.87,1.87-1.87,1.87,.84,1.87,1.87Z"/><path class="cls-1" d="M18.89,48.9c0,1.03-.84,1.87-1.87,1.87s-1.87-.84-1.87-1.87,.84-1.87,1.87-1.87,1.87,.84,1.87,1.87Z"/><path class="cls-1" d="M27.34,33.34c0,1.03-.84,1.87-1.87,1.87s-1.87-.84-1.87-1.87,.84-1.87,1.87-1.87,1.87,.84,1.87,1.87Z"/><path class="cls-1" d="M34.19,26.85c0,1.03-.84,1.87-1.87,1.87s-1.87-.84-1.87-1.87,.84-1.87,1.87-1.87,1.87,.84,1.87,1.87Z"/><circle class="cls-1" cx="4.05" cy="34.59" r="1.87"/><circle class="cls-1" cx="6.69" cy="26.98" r="1.87"/><path class="cls-1" d="M16.36,22.83c0,1.03-.84,1.87-1.87,1.87s-1.87-.84-1.87-1.87,.84-1.87,1.87-1.87,1.87,.84,1.87,1.87Z"/><circle class="cls-1" cx="7.09" cy="42.32" r="1.87"/><path class="cls-1" d="M11.16,50.12c0,1.03-.84,1.87-1.87,1.87s-1.87-.84-1.87-1.87,.84-1.87,1.87-1.87,1.87,.84,1.87,1.87Z"/><path class="cls-1" d="M26.98,22.94c0,1.03-.84,1.87-1.87,1.87s-1.87-.84-1.87-1.87,.84-1.87,1.87-1.87,1.87,.84,1.87,1.87Z"/><g><path class="cls-2" d="M21.57,45.74c-2.57,2.17-6.41,1.84-8.57-.73-2.17-2.57-1.84-6.41,.73-8.57,2.57-2.17,6.41-1.84,8.57,.73,2.17,2.57,1.84,6.41-.73,8.57Z"/><path class="cls-3" d="M22.29,37.16c-2.17-2.57-6.01-2.89-8.57-.73-1.25,1.06-1.97,2.51-2.12,4.02,.2,.93,.63,1.83,1.29,2.61,2.17,2.57,6.01,2.89,8.57,.73,1.25-1.06,1.97-2.51,2.12-4.02-.21-.93-.63-1.83-1.29-2.61Z"/></g><circle class="cls-1" cx="15.78" cy="39.3" r="1.87"/><g><circle class="cls-2" cx="18.35" cy="31.13" r="6.08"/><path class="cls-3" d="M18.35,25.05c-3.36,0-6.08,2.72-6.08,6.08,0,1.64,.65,3.12,1.71,4.22,.85,.45,1.81,.7,2.83,.7,3.36,0,6.08-2.72,6.08-6.08,0-1.64-.65-3.12-1.71-4.22-.85-.45-1.81-.7-2.83-.7Z"/><path class="cls-1" d="M18.45,30.14c0,1.03-.84,1.87-1.87,1.87s-1.87-.84-1.87-1.87,.84-1.87,1.87-1.87,1.87,.84,1.87,1.87Z"/></g></g></g></svg>