<?xml version="1.0" encoding="UTF-8"?><svg id="Livello_2" xmlns="http://www.w3.org/2000/svg" viewBox="0 0 46.44 49.05"><defs><style>.cls-1{fill:#fff21f;}.cls-2{fill:#fd0;}.cls-3{fill:#fef59d;}</style></defs><g id="fruits"><g><path class="cls-2" d="M43.56,1.81c-2.42-2.2-5.96-2.38-8.55-.63-8.24-2.61-18.98,.82-26.72,9.31C-.14,19.72-2.27,31.93,2.49,39.97c-2.55,2.83-3.09,6.49-1.22,8.2,1.88,1.71,5.47,.83,8.06-1.96,8.44,4,20.4,.75,28.82-8.48,7.74-8.49,10.17-19.49,6.81-27.46,1.5-2.75,1-6.26-1.41-8.46Z"/><path class="cls-1" d="M39.87,8.05c1.37-2.51,.92-5.72-1.29-7.74-.11-.1-.22-.19-.33-.28-1.14,.11-2.26,.49-3.24,1.15-8.24-2.61-18.98,.82-26.72,9.31C1.81,17.58-.94,26.43,.29,33.8c.14,.67,.18,1.02,.39,1.81,.41,1.55,1.01,3.01,1.81,4.36-.9,1-1.54,2.1-1.92,3.18,1.81,.91,4.62,.02,6.71-2.24,7.72,3.66,18.66,.69,26.36-7.75,7.08-7.76,9.3-17.83,6.23-25.11Z"/><path class="cls-3" d="M20.13,21.51c-2.54,3.12-6.66,3.97-9.21,1.9s-2.55-6.28-.01-9.4c2.54-3.12,6.66-3.97,9.21-1.9,2.55,2.07,2.55,6.28,.01,9.4Z"/></g></g></svg>